<svg xmlns="http://www.w3.org/2000/svg" xmlns:xlink="http://www.w3.org/1999/xlink" width="400" zoomAndPan="magnify" viewBox="0 0 300 112.499997" height="150" preserveAspectRatio="xMidYMid meet" version="1.0"><defs><g/><clipPath id="7e466d7a77"><path d="M 281 21 L 299.335938 21 L 299.335938 42 L 281 42 Z M 281 21 " clip-rule="nonzero"/></clipPath></defs><g fill="#000000" fill-opacity="1"><g transform="translate(0.421089, 91.56135)"><g><path d="M 36.34375 -59.109375 L 62.484375 -59.109375 L 62.484375 -28.875 C 62.484375 -23.8125 61.617188 -19.363281 59.890625 -15.53125 C 58.171875 -11.707031 55.835938 -8.515625 52.890625 -5.953125 C 49.941406 -3.390625 46.640625 -1.472656 42.984375 -0.203125 C 39.335938 1.054688 35.613281 1.6875 31.8125 1.6875 C 27.957031 1.6875 24.203125 1.054688 20.546875 -0.203125 C 16.890625 -1.472656 13.585938 -3.390625 10.640625 -5.953125 C 7.691406 -8.515625 5.351562 -11.707031 3.625 -15.53125 C 1.90625 -19.363281 1.046875 -23.8125 1.046875 -28.875 L 1.046875 -59.109375 L 27.1875 -59.109375 L 27.1875 -29.921875 C 27.1875 -28.097656 27.675781 -26.726562 28.65625 -25.8125 C 29.632812 -24.894531 30.6875 -24.4375 31.8125 -24.4375 C 32.9375 -24.4375 33.972656 -24.894531 34.921875 -25.8125 C 35.867188 -26.726562 36.34375 -28.097656 36.34375 -29.921875 Z M 36.34375 -59.109375 "/></g></g></g><g fill="#000000" fill-opacity="1"><g transform="translate(63.949064, 91.56135)"><g><path d="M 38.5625 -59.109375 L 38.5625 -34.34375 L 28.546875 -34.34375 C 27.492188 -34.34375 26.96875 -33.816406 26.96875 -32.765625 L 26.96875 0 L 1.046875 0 L 1.046875 -31.71875 C 1.046875 -37.257812 2.238281 -42.066406 4.625 -46.140625 C 7.019531 -50.222656 10.34375 -53.40625 14.59375 -55.6875 C 18.84375 -57.96875 23.707031 -59.109375 29.1875 -59.109375 Z M 38.5625 -59.109375 "/></g></g></g><g fill="#000000" fill-opacity="1"><g transform="translate(103.456524, 91.56135)"><g><path d="M 27.078125 -73.75 L 27.078125 -29.5 C 27.078125 -28.019531 27.601562 -26.753906 28.65625 -25.703125 C 29.707031 -24.648438 30.972656 -24.125 32.453125 -24.125 C 33.921875 -24.125 35.179688 -24.648438 36.234375 -25.703125 C 37.296875 -26.753906 37.828125 -28.019531 37.828125 -29.5 C 37.828125 -30.976562 37.296875 -32.257812 36.234375 -33.34375 C 35.179688 -34.4375 33.921875 -34.984375 32.453125 -34.984375 L 28.546875 -34.984375 L 28.546875 -60.890625 L 32.453125 -60.890625 C 36.804688 -60.890625 40.859375 -60.066406 44.609375 -58.421875 C 48.367188 -56.773438 51.6875 -54.472656 54.5625 -51.515625 C 57.445312 -48.566406 59.695312 -45.195312 61.3125 -41.40625 C 62.9375 -37.613281 63.75 -33.539062 63.75 -29.1875 C 63.75 -24.894531 62.9375 -20.851562 61.3125 -17.0625 C 59.695312 -13.269531 57.445312 -9.929688 54.5625 -7.046875 C 51.6875 -4.171875 48.367188 -1.925781 44.609375 -0.3125 C 40.859375 1.300781 36.804688 2.109375 32.453125 2.109375 C 28.171875 2.109375 24.128906 1.300781 20.328125 -0.3125 C 16.535156 -1.925781 13.195312 -4.171875 10.3125 -7.046875 C 7.4375 -9.929688 5.191406 -13.269531 3.578125 -17.0625 C 1.960938 -20.851562 1.15625 -24.894531 1.15625 -29.1875 L 1.15625 -73.75 Z M 27.078125 -73.75 "/></g></g></g><g fill="#000000" fill-opacity="1"><g transform="translate(168.143386, 91.56135)"><g><path d="M 31.5 -60.890625 C 35.71875 -60.890625 39.648438 -60.097656 43.296875 -58.515625 C 46.953125 -56.941406 50.179688 -54.765625 52.984375 -51.984375 C 55.796875 -49.210938 57.992188 -45.984375 59.578125 -42.296875 C 61.160156 -38.609375 61.953125 -34.660156 61.953125 -30.453125 L 61.953125 0 L 36.671875 0 L 36.671875 -30.453125 C 36.671875 -31.859375 36.160156 -33.085938 35.140625 -34.140625 C 34.117188 -35.191406 32.90625 -35.71875 31.5 -35.71875 C 30.03125 -35.71875 28.785156 -35.191406 27.765625 -34.140625 C 26.742188 -33.085938 26.234375 -31.859375 26.234375 -30.453125 C 26.234375 -29.046875 26.742188 -27.816406 27.765625 -26.765625 C 28.785156 -25.710938 30.03125 -25.1875 31.5 -25.1875 L 35.1875 -25.1875 L 35.1875 0 L 31.5 0 C 27.289062 0 23.34375 -0.785156 19.65625 -2.359375 C 15.96875 -3.941406 12.734375 -6.140625 9.953125 -8.953125 C 7.179688 -11.765625 5.003906 -14.992188 3.421875 -18.640625 C 1.835938 -22.296875 1.046875 -26.234375 1.046875 -30.453125 C 1.046875 -34.660156 1.835938 -38.609375 3.421875 -42.296875 C 5.003906 -45.984375 7.179688 -49.210938 9.953125 -51.984375 C 12.734375 -54.765625 15.96875 -56.941406 19.65625 -58.515625 C 23.34375 -60.097656 27.289062 -60.890625 31.5 -60.890625 Z M 31.5 -60.890625 "/></g></g></g><g fill="#000000" fill-opacity="1"><g transform="translate(231.039256, 91.56135)"><g><path d="M 26.859375 0 L 0.953125 0 L 0.953125 -30.34375 C 0.953125 -35.539062 1.8125 -40.070312 3.53125 -43.9375 C 5.25 -47.800781 7.566406 -51.015625 10.484375 -53.578125 C 13.398438 -56.140625 16.664062 -58.050781 20.28125 -59.3125 C 23.894531 -60.582031 27.597656 -61.21875 31.390625 -61.21875 C 35.191406 -61.21875 38.914062 -60.582031 42.5625 -59.3125 C 46.21875 -58.050781 49.484375 -56.140625 52.359375 -53.578125 C 55.242188 -51.015625 57.546875 -47.800781 59.265625 -43.9375 C 60.984375 -40.070312 61.84375 -35.539062 61.84375 -30.34375 L 61.84375 0 L 35.921875 0 L 35.921875 -30.34375 C 35.921875 -31.882812 35.460938 -33.09375 34.546875 -33.96875 C 33.640625 -34.851562 32.585938 -35.296875 31.390625 -35.296875 C 30.273438 -35.296875 29.238281 -34.851562 28.28125 -33.96875 C 27.332031 -33.09375 26.859375 -31.882812 26.859375 -30.34375 Z M 26.859375 0 "/></g></g></g><g fill="#000000" fill-opacity="1"><g transform="translate(250.933635, 29.455439)"><g><path d="M 11.9375 -16.546875 C 12.03125 -16.421875 12.070312 -16.296875 12.0625 -16.171875 C 11.832031 -12.578125 11.703125 -9.859375 11.671875 -8.015625 C 11.628906 -6.398438 11.625 -4 11.65625 -0.8125 C 11.65625 -0.488281 11.5 -0.320312 11.1875 -0.3125 L 7.6875 -0.296875 C 7.550781 -0.296875 7.4375 -0.335938 7.34375 -0.421875 C 7.25 -0.515625 7.203125 -0.632812 7.203125 -0.78125 L 7.203125 -1.0625 C 7.253906 -1.09375 7.28125 -1.113281 7.28125 -1.125 L 7.28125 -1.203125 L 7.21875 -1.203125 L 7.234375 -1.859375 L 7.328125 -1.90625 C 7.328125 -1.925781 7.316406 -1.941406 7.296875 -1.953125 C 7.273438 -1.972656 7.253906 -1.988281 7.234375 -2 L 7.46875 -6.984375 L 7.015625 -6.921875 L 6.59375 -6.84375 C 6.5 -6.84375 6.390625 -6.828125 6.265625 -6.796875 C 6.179688 -6.796875 6.0625 -6.78125 5.90625 -6.75 C 5.476562 -6.644531 4.929688 -6.46875 4.265625 -6.21875 L 4.21875 -0.578125 C 4.21875 -0.265625 4.0625 -0.109375 3.75 -0.109375 L 0.265625 0 C 0.109375 0 -0.0078125 -0.046875 -0.09375 -0.140625 C -0.1875 -0.234375 -0.234375 -0.359375 -0.234375 -0.515625 L 0.6875 -16 C 0.71875 -16.300781 0.875 -16.457031 1.15625 -16.46875 L 4.1875 -16.546875 C 4.34375 -16.546875 4.46875 -16.492188 4.5625 -16.390625 C 4.65625 -16.296875 4.695312 -16.179688 4.6875 -16.046875 L 4.359375 -10.390625 L 5.28125 -10.421875 L 5.328125 -10.359375 C 5.328125 -10.328125 5.363281 -10.3125 5.4375 -10.3125 C 5.488281 -10.3125 5.523438 -10.34375 5.546875 -10.40625 L 5.421875 -10.421875 L 7.625 -10.546875 L 7.90625 -16.203125 C 7.925781 -16.503906 8.085938 -16.65625 8.390625 -16.65625 L 11.578125 -16.6875 C 11.710938 -16.6875 11.832031 -16.640625 11.9375 -16.546875 Z M 4.140625 -15.5625 C 4.109375 -15.59375 4.046875 -15.628906 3.953125 -15.671875 L 3.5 -15.71875 L 3.453125 -15.71875 L 3.234375 -15.703125 L 3.09375 -15.703125 C 3.050781 -15.679688 2.972656 -15.664062 2.859375 -15.65625 L 2.71875 -15.65625 C 2.664062 -15.65625 2.640625 -15.664062 2.640625 -15.6875 L 2.640625 -15.75 L 2.453125 -15.75 C 2.378906 -15.675781 2.328125 -15.640625 2.296875 -15.640625 C 2.273438 -15.648438 2.210938 -15.640625 2.109375 -15.609375 C 2.265625 -15.546875 2.394531 -15.515625 2.5 -15.515625 L 2.671875 -15.5625 L 2.84375 -15.59375 C 2.851562 -15.59375 2.875 -15.585938 2.90625 -15.578125 C 2.9375 -15.578125 3 -15.578125 3.09375 -15.578125 L 3.90625 -15.5625 L 3.96875 -15.515625 C 3.988281 -15.492188 4.023438 -15.484375 4.078125 -15.484375 Z M 1.8125 -15.328125 C 1.8125 -15.335938 1.800781 -15.351562 1.78125 -15.375 C 1.769531 -15.394531 1.757812 -15.40625 1.75 -15.40625 C 1.71875 -15.4375 1.703125 -15.457031 1.703125 -15.46875 L 1.71875 -15.515625 L 1.71875 -15.59375 L 1.578125 -15.5625 L 1.515625 -15.546875 L 1.515625 -15.296875 C 1.554688 -15.253906 1.609375 -15.234375 1.671875 -15.234375 Z M 1.953125 -14.78125 L 1.953125 -14.90625 L 1.875 -14.90625 L 1.875 -14.78125 Z M 8.40625 -14.765625 C 8.40625 -14.734375 8.4375 -14.679688 8.5 -14.609375 L 8.609375 -14.71875 C 8.578125 -14.75 8.5625 -14.765625 8.5625 -14.765625 Z M 9.84375 -14.5625 L 9.84375 -14.65625 L 9.78125 -14.65625 L 9.78125 -14.5625 Z M 9.390625 -14.25 L 9.390625 -14.296875 L 9.328125 -14.296875 L 9.328125 -14.25 Z M 9.25 -13.796875 L 9.25 -13.890625 L 9.203125 -13.890625 L 9.203125 -13.796875 Z M 2.375 -13.5 L 2.359375 -13.5 L 2.3125 -13.453125 L 2.359375 -13.4375 Z M 3.71875 -13.046875 C 3.71875 -13.085938 3.695312 -13.117188 3.65625 -13.140625 C 3.625 -13.171875 3.625 -13.203125 3.65625 -13.234375 C 3.644531 -13.285156 3.628906 -13.316406 3.609375 -13.328125 L 3.515625 -13.328125 L 3.421875 -13.25 L 3.421875 -13.109375 L 3.65625 -13.015625 L 3.703125 -13.015625 Z M 8.5 -13.359375 L 8.5 -13.3125 L 8.65625 -13.3125 L 8.65625 -13.359375 Z M 8.625 -13 L 8.8125 -13 L 8.8125 -13.046875 L 8.625 -13.046875 Z M 9.796875 -11.78125 C 9.796875 -11.75 9.828125 -11.71875 9.890625 -11.6875 C 9.984375 -11.625 10.03125 -11.59375 10.03125 -11.59375 L 9.90625 -11.71875 Z M 5.96875 -10.140625 C 5.90625 -10.203125 5.84375 -10.234375 5.78125 -10.234375 C 5.757812 -10.222656 5.742188 -10.21875 5.734375 -10.21875 L 5.734375 -10.171875 C 5.734375 -10.148438 5.753906 -10.125 5.796875 -10.09375 C 5.890625 -10.050781 5.929688 -10.035156 5.921875 -10.046875 L 5.9375 -10.09375 Z M 6.5625 -10.046875 L 6.609375 -10.046875 L 6.5625 -10.09375 L 6.515625 -10.078125 Z M 5.34375 -9.765625 C 5.4375 -9.734375 5.507812 -9.765625 5.5625 -9.859375 L 5.421875 -9.859375 C 5.367188 -9.847656 5.34375 -9.816406 5.34375 -9.765625 Z M 6.078125 -9.734375 C 6.109375 -9.722656 6.140625 -9.703125 6.171875 -9.671875 C 6.210938 -9.648438 6.25 -9.640625 6.28125 -9.640625 L 6.34375 -9.71875 L 6.328125 -9.765625 L 6.296875 -9.78125 L 6.109375 -9.78125 L 6.109375 -9.765625 Z M 5.828125 -9.390625 C 5.921875 -9.484375 5.96875 -9.535156 5.96875 -9.546875 L 5.9375 -9.625 C 5.925781 -9.625 5.921875 -9.628906 5.921875 -9.640625 L 5.75 -9.59375 C 5.71875 -9.59375 5.695312 -9.582031 5.6875 -9.5625 C 5.6875 -9.550781 5.6875 -9.535156 5.6875 -9.515625 C 5.695312 -9.492188 5.703125 -9.472656 5.703125 -9.453125 L 5.78125 -9.34375 C 5.78125 -9.34375 5.796875 -9.359375 5.828125 -9.390625 Z M 5.390625 -9.59375 L 5.390625 -9.546875 L 5.515625 -9.546875 L 5.515625 -9.59375 Z M 7.390625 -9.40625 C 7.460938 -9.476562 7.535156 -9.53125 7.609375 -9.5625 C 7.535156 -9.5625 7.5 -9.570312 7.5 -9.59375 C 7.457031 -9.539062 7.410156 -9.515625 7.359375 -9.515625 C 7.316406 -9.515625 7.269531 -9.539062 7.21875 -9.59375 C 7.207031 -9.570312 7.171875 -9.539062 7.109375 -9.5 C 7.054688 -9.457031 7.03125 -9.425781 7.03125 -9.40625 C 7.03125 -9.34375 7.046875 -9.3125 7.078125 -9.3125 C 7.265625 -9.320312 7.367188 -9.351562 7.390625 -9.40625 Z M 7.953125 -9.46875 C 7.953125 -9.457031 7.957031 -9.445312 7.96875 -9.4375 C 7.976562 -9.425781 7.984375 -9.421875 7.984375 -9.421875 C 7.984375 -9.421875 7.984375 -9.414062 7.984375 -9.40625 C 7.992188 -9.40625 8 -9.40625 8 -9.40625 L 8.078125 -9.46875 Z M 5.390625 -9.3125 C 5.390625 -9.34375 5.398438 -9.359375 5.421875 -9.359375 L 5.390625 -9.40625 L 5.34375 -9.390625 L 5.328125 -9.390625 Z M 7.1875 -8.8125 C 7.125 -8.90625 7.046875 -8.945312 6.953125 -8.9375 L 6.90625 -8.9375 C 6.90625 -8.914062 6.890625 -8.90625 6.859375 -8.90625 C 6.804688 -8.90625 6.757812 -8.929688 6.71875 -8.984375 C 6.789062 -9.023438 6.863281 -9.046875 6.9375 -9.046875 C 7 -9.046875 7.035156 -9.015625 7.046875 -8.953125 C 7.046875 -8.984375 7.0625 -9.023438 7.09375 -9.078125 C 7.125 -9.140625 7.15625 -9.175781 7.1875 -9.1875 L 7.046875 -9.171875 L 7 -9.15625 C 6.9375 -9.15625 6.878906 -9.171875 6.828125 -9.203125 C 6.785156 -9.234375 6.765625 -9.265625 6.765625 -9.296875 C 6.773438 -9.203125 6.726562 -9.15625 6.625 -9.15625 L 6.625 -9.171875 L 6.5 -9.171875 C 6.488281 -9.171875 6.46875 -9.15625 6.4375 -9.125 L 6.40625 -9.125 L 6.390625 -9.09375 C 6.304688 -9.09375 6.265625 -9.0625 6.265625 -9 L 6.40625 -8.984375 C 6.4375 -8.921875 6.5 -8.875 6.59375 -8.84375 C 6.65625 -8.820312 6.75 -8.773438 6.875 -8.703125 L 7.1875 -8.71875 Z M 7.5 -9.28125 L 7.65625 -9.234375 L 7.65625 -9.265625 L 7.546875 -9.3125 Z M 5.3125 -9.046875 C 5.28125 -9.046875 5.265625 -9.03125 5.265625 -9 L 5.390625 -9 Z M 7.90625 -8.90625 C 7.882812 -8.945312 7.835938 -8.96875 7.765625 -8.96875 L 7.71875 -8.90625 Z M 8.640625 -8.8125 C 8.703125 -8.8125 8.75 -8.816406 8.78125 -8.828125 C 8.8125 -8.828125 8.832031 -8.835938 8.84375 -8.859375 L 8.890625 -8.875 L 8.84375 -8.921875 C 8.8125 -8.921875 8.789062 -8.929688 8.78125 -8.953125 L 8.703125 -8.953125 C 8.691406 -8.953125 8.671875 -8.953125 8.640625 -8.953125 C 8.609375 -8.960938 8.5625 -8.96875 8.5 -8.96875 L 8.453125 -8.859375 L 8.546875 -8.8125 Z M 5.5625 -8.75 L 5.5625 -8.671875 L 5.609375 -8.671875 L 5.609375 -8.75 Z M 7.953125 -8.6875 L 7.828125 -8.6875 L 7.828125 -8.640625 L 7.953125 -8.640625 Z M 6.734375 -8.5625 L 6.734375 -8.484375 L 6.78125 -8.484375 L 6.78125 -8.5625 Z M 7.328125 -8.125 C 7.378906 -8.164062 7.410156 -8.1875 7.421875 -8.1875 L 7.265625 -8.1875 L 7.078125 -8.234375 L 7.046875 -8.109375 C 7.046875 -8.109375 7.050781 -8.101562 7.0625 -8.09375 C 7.070312 -8.09375 7.078125 -8.09375 7.078125 -8.09375 L 7.21875 -8.046875 C 7.25 -8.046875 7.285156 -8.070312 7.328125 -8.125 Z M 7.875 -8.078125 L 7.875 -8.1875 L 7.671875 -8.1875 L 7.625 -8.125 C 7.6875 -8.09375 7.71875 -8.078125 7.71875 -8.078125 L 7.8125 -8.046875 Z M 9.4375 -7.859375 L 9.515625 -7.921875 C 9.492188 -7.921875 9.46875 -7.945312 9.4375 -8 L 9.203125 -8 L 9.1875 -7.96875 L 9.1875 -7.875 Z M 9.9375 -7.5625 C 9.9375 -7.5625 9.941406 -7.554688 9.953125 -7.546875 C 9.972656 -7.546875 10.015625 -7.578125 10.078125 -7.640625 L 10.03125 -7.65625 L 10.015625 -7.703125 C 9.953125 -7.703125 9.921875 -7.679688 9.921875 -7.640625 C 9.921875 -7.585938 9.925781 -7.5625 9.9375 -7.5625 Z M 8.359375 -7.625 C 8.335938 -7.632812 8.296875 -7.640625 8.234375 -7.640625 L 8.28125 -7.53125 C 8.3125 -7.539062 8.328125 -7.550781 8.328125 -7.5625 C 8.328125 -7.582031 8.335938 -7.601562 8.359375 -7.625 Z M 11.109375 -7.421875 L 11.125 -7 C 11.125 -6.96875 11.140625 -6.945312 11.171875 -6.9375 C 11.210938 -6.925781 11.25 -6.925781 11.28125 -6.9375 L 11.265625 -7.4375 Z M 9.25 -6.8125 L 9.296875 -6.8125 L 9.3125 -6.90625 L 9.265625 -6.90625 Z M 2.984375 -6.609375 L 3.125 -6.59375 L 3.125 -6.625 L 3.109375 -6.640625 L 3.109375 -6.671875 C 3.054688 -6.648438 2.992188 -6.632812 2.921875 -6.625 L 2.796875 -6.625 Z M 3.25 -6.484375 C 3.34375 -6.484375 3.40625 -6.5 3.4375 -6.53125 L 3.4375 -6.59375 C 3.414062 -6.613281 3.375 -6.625 3.3125 -6.625 L 3.265625 -6.59375 L 3.25 -6.578125 L 3.203125 -6.578125 L 3.203125 -6.484375 Z M 1.9375 -6.421875 C 1.96875 -6.390625 2 -6.335938 2.03125 -6.265625 C 2.070312 -6.234375 2.09375 -6.207031 2.09375 -6.1875 C 2.101562 -6.164062 2.117188 -6.144531 2.140625 -6.125 C 2.171875 -6.125 2.191406 -6.132812 2.203125 -6.15625 L 2.328125 -6.21875 C 2.390625 -6.269531 2.421875 -6.320312 2.421875 -6.375 C 2.421875 -6.414062 2.40625 -6.445312 2.375 -6.46875 C 2.351562 -6.46875 2.335938 -6.472656 2.328125 -6.484375 C 2.328125 -6.503906 2.328125 -6.515625 2.328125 -6.515625 Z M 3.578125 -6.3125 L 3.515625 -6.34375 L 3.484375 -6.34375 L 3.53125 -6.28125 Z M 9.03125 -5.78125 C 9.03125 -5.789062 9.015625 -5.8125 8.984375 -5.84375 L 8.90625 -5.890625 L 8.796875 -5.890625 L 8.84375 -5.75 L 8.953125 -5.75 L 8.984375 -5.78125 Z M 3.53125 -5.625 L 3.53125 -5.546875 L 3.65625 -5.546875 L 3.71875 -5.625 Z M 9.328125 -5.109375 L 9.3125 -5.171875 L 9.265625 -5.265625 L 9.203125 -5.265625 L 9.21875 -5.109375 Z M 3.21875 -5.125 C 3.132812 -5.0625 3.085938 -5.007812 3.078125 -4.96875 L 3.1875 -4.96875 L 3.359375 -5.0625 C 3.359375 -5.070312 3.34375 -5.082031 3.3125 -5.09375 C 3.28125 -5.113281 3.25 -5.125 3.21875 -5.125 Z M 7.796875 -4.953125 C 7.828125 -4.953125 7.84375 -4.957031 7.84375 -4.96875 L 7.84375 -5 L 7.75 -5.046875 C 7.6875 -5.015625 7.65625 -4.984375 7.65625 -4.953125 Z M 9.5 -4.8125 C 9.53125 -4.8125 9.554688 -4.820312 9.578125 -4.84375 C 9.597656 -4.875 9.609375 -4.894531 9.609375 -4.90625 C 9.546875 -4.90625 9.507812 -4.875 9.5 -4.8125 Z M 1.15625 -4.15625 L 1.15625 -4.234375 L 1.109375 -4.234375 L 1.109375 -4.15625 Z M 3.3125 -3.875 C 3.40625 -3.914062 3.453125 -3.960938 3.453125 -4.015625 C 3.453125 -4.078125 3.410156 -4.113281 3.328125 -4.125 L 3.28125 -4.109375 L 3.265625 -4.03125 L 3.28125 -3.96875 Z M 7.59375 -4.015625 C 7.632812 -4.003906 7.675781 -4 7.71875 -4 C 7.738281 -4.007812 7.765625 -4.015625 7.796875 -4.015625 L 7.796875 -4.09375 L 7.703125 -4.09375 C 7.628906 -4.0625 7.59375 -4.035156 7.59375 -4.015625 Z M 1.15625 -4.015625 L 1.109375 -4 L 1.15625 -3.96875 L 1.203125 -4 Z M 9.78125 -4.015625 C 9.75 -3.992188 9.742188 -3.976562 9.765625 -3.96875 L 9.78125 -3.921875 L 9.875 -3.96875 L 9.875 -3.984375 C 9.875 -3.984375 9.867188 -3.988281 9.859375 -4 C 9.859375 -4.007812 9.859375 -4.015625 9.859375 -4.015625 L 9.828125 -4.03125 C 9.816406 -4.03125 9.8125 -4.023438 9.8125 -4.015625 Z M 9.546875 -3.78125 C 9.515625 -3.8125 9.488281 -3.828125 9.46875 -3.828125 C 9.46875 -3.734375 9.476562 -3.671875 9.5 -3.640625 L 9.5 -3.5625 C 9.507812 -3.582031 9.546875 -3.59375 9.609375 -3.59375 L 9.609375 -3.703125 Z M 1.765625 -3.59375 C 1.796875 -3.59375 1.8125 -3.617188 1.8125 -3.671875 L 1.765625 -3.6875 L 1.65625 -3.6875 C 1.65625 -3.644531 1.660156 -3.625 1.671875 -3.625 C 1.722656 -3.625 1.753906 -3.613281 1.765625 -3.59375 Z M 3.28125 -3.5625 C 3.3125 -3.5625 3.3125 -3.578125 3.28125 -3.609375 C 3.25 -3.640625 3.234375 -3.65625 3.234375 -3.65625 C 3.234375 -3.625 3.21875 -3.601562 3.1875 -3.59375 C 3.1875 -3.570312 3.203125 -3.5625 3.234375 -3.5625 Z M 10.640625 -3.515625 C 10.609375 -3.546875 10.59375 -3.5625 10.59375 -3.5625 C 10.5625 -3.59375 10.535156 -3.609375 10.515625 -3.609375 L 10.421875 -3.5625 C 10.421875 -3.5625 10.414062 -3.554688 10.40625 -3.546875 C 10.394531 -3.535156 10.390625 -3.53125 10.390625 -3.53125 L 10.375 -3.53125 L 10.296875 -3.5625 C 10.296875 -3.59375 10.304688 -3.617188 10.328125 -3.640625 L 10.34375 -3.65625 C 10.34375 -3.65625 10.347656 -3.660156 10.359375 -3.671875 C 10.367188 -3.679688 10.375 -3.6875 10.375 -3.6875 L 10.296875 -3.6875 C 10.265625 -3.695312 10.238281 -3.695312 10.21875 -3.6875 C 10.195312 -3.6875 10.171875 -3.6875 10.140625 -3.6875 L 10.1875 -3.53125 C 10.1875 -3.519531 10.1875 -3.5 10.1875 -3.46875 C 10.195312 -3.445312 10.21875 -3.421875 10.25 -3.390625 C 10.300781 -3.390625 10.328125 -3.398438 10.328125 -3.421875 L 10.421875 -3.421875 C 10.503906 -3.421875 10.5625 -3.410156 10.59375 -3.390625 Z M 2.546875 -3.421875 C 2.597656 -3.421875 2.648438 -3.441406 2.703125 -3.484375 C 2.765625 -3.523438 2.8125 -3.570312 2.84375 -3.625 L 2.796875 -3.59375 C 2.796875 -3.582031 2.757812 -3.578125 2.6875 -3.578125 C 2.65625 -3.578125 2.640625 -3.582031 2.640625 -3.59375 L 2.546875 -3.625 C 2.472656 -3.625 2.421875 -3.570312 2.390625 -3.46875 L 2.484375 -3.453125 C 2.484375 -3.429688 2.503906 -3.421875 2.546875 -3.421875 Z M 9.921875 -3.53125 L 9.90625 -3.640625 C 9.820312 -3.609375 9.78125 -3.570312 9.78125 -3.53125 L 9.921875 -3.484375 Z M 9.5 -3.390625 C 9.46875 -3.316406 9.441406 -3.28125 9.421875 -3.28125 C 9.390625 -3.3125 9.351562 -3.316406 9.3125 -3.296875 L 9.171875 -3.296875 C 9.179688 -3.285156 9.191406 -3.265625 9.203125 -3.234375 C 9.210938 -3.210938 9.222656 -3.203125 9.234375 -3.203125 C 9.265625 -3.171875 9.296875 -3.15625 9.328125 -3.15625 C 9.359375 -3.15625 9.382812 -3.164062 9.40625 -3.1875 L 9.5 -3.203125 L 9.546875 -3.203125 L 9.59375 -3.25 L 9.59375 -3.328125 Z M 3.546875 -3.28125 C 3.546875 -3.28125 3.539062 -3.28125 3.53125 -3.28125 C 3.53125 -3.289062 3.53125 -3.296875 3.53125 -3.296875 L 3.5 -3.328125 L 3.453125 -3.28125 Z M 8.4375 -3.265625 L 8.390625 -3.234375 L 8.4375 -3.21875 L 8.484375 -3.234375 Z M 2.421875 -2.84375 C 2.472656 -2.875 2.5 -2.894531 2.5 -2.90625 C 2.5 -2.9375 2.46875 -2.96875 2.40625 -3 C 2.34375 -3 2.296875 -3.007812 2.265625 -3.03125 C 2.203125 -3 2.171875 -2.957031 2.171875 -2.90625 C 2.171875 -2.875 2.175781 -2.859375 2.1875 -2.859375 C 2.1875 -2.859375 2.191406 -2.851562 2.203125 -2.84375 C 2.210938 -2.84375 2.21875 -2.84375 2.21875 -2.84375 Z M 9.796875 -2.828125 C 9.878906 -2.773438 9.941406 -2.75 9.984375 -2.75 C 10.035156 -2.75 10.066406 -2.757812 10.078125 -2.78125 C 10.078125 -2.8125 10.085938 -2.828125 10.109375 -2.828125 C 10.078125 -2.859375 10.035156 -2.875 9.984375 -2.875 L 9.890625 -2.921875 Z M 1.171875 -2.640625 L 1.171875 -2.765625 L 1.125 -2.765625 L 1.125 -2.640625 Z M 3.84375 -2.703125 L 3.84375 -2.65625 L 3.96875 -2.65625 L 3.96875 -2.703125 Z M 8.890625 -2.71875 C 8.890625 -2.632812 8.945312 -2.59375 9.0625 -2.59375 C 9.007812 -2.625 8.984375 -2.648438 8.984375 -2.671875 Z M 9.390625 -2.328125 C 9.390625 -2.328125 9.375 -2.375 9.34375 -2.46875 C 9.332031 -2.488281 9.328125 -2.519531 9.328125 -2.5625 C 9.328125 -2.550781 9.3125 -2.515625 9.28125 -2.453125 C 9.257812 -2.398438 9.257812 -2.359375 9.28125 -2.328125 Z M 7.59375 -2.4375 L 7.609375 -2.4375 L 7.71875 -2.453125 C 7.71875 -2.484375 7.679688 -2.5 7.609375 -2.5 L 7.59375 -2.5 L 7.5625 -2.484375 L 7.59375 -2.453125 Z M 0.84375 -2.34375 C 0.707031 -2.375 0.617188 -2.390625 0.578125 -2.390625 C 0.523438 -2.390625 0.5 -2.367188 0.5 -2.328125 C 0.550781 -2.265625 0.640625 -2.234375 0.765625 -2.234375 L 0.84375 -2.25 Z M 10.203125 -2.015625 C 10.242188 -2.046875 10.265625 -2.078125 10.265625 -2.109375 L 10.21875 -2.21875 C 10.1875 -2.175781 10.164062 -2.15625 10.15625 -2.15625 L 10.078125 -2.109375 C 9.984375 -2.066406 9.9375 -2.03125 9.9375 -2 C 10 -2 10.03125 -1.988281 10.03125 -1.96875 C 10.019531 -1.957031 10.03125 -1.925781 10.0625 -1.875 L 10.109375 -1.875 C 10.109375 -1.894531 10.125 -1.90625 10.15625 -1.90625 C 10.125 -1.945312 10.140625 -1.984375 10.203125 -2.015625 Z M 1.21875 -1.859375 L 1.140625 -1.859375 L 1.140625 -1.609375 C 1.140625 -1.648438 1.148438 -1.6875 1.171875 -1.71875 C 1.171875 -1.75 1.175781 -1.773438 1.1875 -1.796875 Z M 8.140625 -1.84375 C 8.109375 -1.789062 8.128906 -1.765625 8.203125 -1.765625 L 8.25 -1.8125 Z M 9.9375 -1.484375 L 10.015625 -1.546875 C 9.984375 -1.546875 9.96875 -1.5625 9.96875 -1.59375 L 9.84375 -1.59375 C 9.8125 -1.59375 9.796875 -1.578125 9.796875 -1.546875 C 9.816406 -1.515625 9.84375 -1.5 9.875 -1.5 Z M 10.40625 -1.53125 L 10.40625 -1.40625 L 10.46875 -1.40625 L 10.46875 -1.53125 Z M 7.71875 -1.34375 C 7.644531 -1.375 7.59375 -1.390625 7.5625 -1.390625 L 7.46875 -1.40625 C 7.425781 -1.394531 7.40625 -1.375 7.40625 -1.34375 C 7.414062 -1.3125 7.4375 -1.296875 7.46875 -1.296875 Z M 7.734375 -0.96875 C 7.828125 -1.03125 7.894531 -1.0625 7.9375 -1.0625 C 8.019531 -1.070312 8.085938 -1.117188 8.140625 -1.203125 L 8.140625 -1.25 L 8.109375 -1.25 C 8.078125 -1.25 8.054688 -1.238281 8.046875 -1.21875 L 7.953125 -1.203125 L 7.8125 -1.25 C 7.757812 -1.226562 7.722656 -1.179688 7.703125 -1.109375 C 7.691406 -1.046875 7.703125 -1 7.734375 -0.96875 Z M 9.8125 -0.90625 C 9.757812 -0.9375 9.734375 -0.953125 9.734375 -0.953125 L 9.671875 -0.953125 L 9.671875 -0.890625 Z M 10.28125 -0.84375 C 10.269531 -0.84375 10.234375 -0.859375 10.171875 -0.890625 C 10.148438 -0.898438 10.117188 -0.90625 10.078125 -0.90625 C 10.046875 -0.90625 10.03125 -0.898438 10.03125 -0.890625 C 10.03125 -0.890625 10.023438 -0.882812 10.015625 -0.875 C 10.003906 -0.863281 10 -0.859375 10 -0.859375 L 10 -0.796875 L 10.03125 -0.734375 L 10.046875 -0.71875 L 10.28125 -0.796875 Z M 8.34375 -0.609375 C 8.363281 -0.609375 8.394531 -0.644531 8.4375 -0.71875 C 8.3125 -0.71875 8.203125 -0.769531 8.109375 -0.875 C 8.054688 -0.820312 8.03125 -0.78125 8.03125 -0.75 C 8.03125 -0.71875 8.050781 -0.6875 8.09375 -0.65625 C 8.144531 -0.625 8.195312 -0.609375 8.25 -0.609375 Z M 8.34375 -0.609375 "/></g></g></g><g fill="#000000" fill-opacity="1"><g transform="translate(267.041599, 29.842415)"><g><path d="M 5.90625 -2.375 C 5.488281 -2.5 5.242188 -2.75 5.171875 -3.125 C 5.109375 -3.507812 5.160156 -3.984375 5.328125 -4.546875 C 5.398438 -4.753906 5.515625 -5.066406 5.671875 -5.484375 L 6.8125 -8.421875 L 8.921875 -13.75 L 8.921875 -13.796875 C 8.960938 -13.921875 8.953125 -14.039062 8.890625 -14.15625 C 8.828125 -14.269531 8.734375 -14.347656 8.609375 -14.390625 L 5.828125 -15.234375 C 5.546875 -15.328125 5.347656 -15.242188 5.234375 -14.984375 L 3.03125 -9.75 C 2.476562 -8.425781 2.039062 -7.273438 1.71875 -6.296875 L 1.484375 -5.578125 C 1.234375 -4.753906 1.078125 -4.132812 1.015625 -3.71875 C 0.773438 -2.425781 0.894531 -1.378906 1.375 -0.578125 C 1.820312 0.222656 2.835938 0.867188 4.421875 1.359375 C 6.429688 1.972656 8.144531 1.847656 9.5625 0.984375 C 10.46875 0.421875 11.234375 -0.429688 11.859375 -1.578125 C 12.378906 -2.566406 12.820312 -3.660156 13.1875 -4.859375 L 13.65625 -6.34375 L 15.546875 -11.71875 C 15.578125 -11.84375 15.5625 -11.96875 15.5 -12.09375 C 15.4375 -12.226562 15.34375 -12.316406 15.21875 -12.359375 L 12.4375 -13.203125 C 12.15625 -13.296875 11.960938 -13.195312 11.859375 -12.90625 L 9.921875 -7.609375 L 9.90625 -7.59375 C 9.476562 -6.382812 9.148438 -5.476562 8.921875 -4.875 L 8.578125 -4.03125 C 8.554688 -3.96875 8.476562 -3.804688 8.34375 -3.546875 C 8.09375 -3.023438 7.785156 -2.648438 7.421875 -2.421875 C 7.054688 -2.191406 6.550781 -2.175781 5.90625 -2.375 Z M 14.765625 -11.1875 C 14.671875 -10.976562 14.601562 -10.820312 14.5625 -10.71875 C 14.5625 -10.71875 14.5625 -10.710938 14.5625 -10.703125 C 14.570312 -10.691406 14.578125 -10.6875 14.578125 -10.6875 C 14.566406 -10.675781 14.566406 -10.671875 14.578125 -10.671875 L 14.328125 -10.75 L 14.484375 -11.28125 C 14.523438 -11.425781 14.539062 -11.515625 14.53125 -11.546875 L 14.578125 -11.671875 C 14.585938 -11.722656 14.617188 -11.789062 14.671875 -11.875 C 14.734375 -11.957031 14.796875 -11.988281 14.859375 -11.96875 C 14.972656 -11.925781 15.015625 -11.859375 14.984375 -11.765625 C 14.953125 -11.671875 14.929688 -11.617188 14.921875 -11.609375 L 14.90625 -11.515625 Z M 4.4375 -11.953125 C 4.445312 -11.992188 4.476562 -12.035156 4.53125 -12.078125 L 4.625 -12.1875 L 4.65625 -12.34375 L 4.671875 -12.5 L 4.65625 -12.625 L 4.640625 -12.765625 L 4.734375 -12.890625 L 4.890625 -13.125 C 4.898438 -13.144531 4.894531 -13.175781 4.875 -13.21875 L 4.859375 -13.28125 C 4.859375 -13.300781 4.878906 -13.320312 4.921875 -13.34375 L 5.046875 -13.625 C 5.085938 -13.644531 5.109375 -13.664062 5.109375 -13.6875 C 5.128906 -13.695312 5.144531 -13.734375 5.15625 -13.796875 C 5.21875 -13.835938 5.257812 -13.878906 5.28125 -13.921875 L 5.328125 -14.078125 C 5.328125 -14.148438 5.320312 -14.207031 5.3125 -14.25 C 5.3125 -14.289062 5.285156 -14.332031 5.234375 -14.375 C 5.304688 -14.351562 5.347656 -14.351562 5.359375 -14.375 C 5.398438 -14.394531 5.4375 -14.398438 5.46875 -14.390625 L 5.578125 -14.359375 L 4.546875 -11.515625 C 4.484375 -11.453125 4.421875 -11.421875 4.359375 -11.421875 L 4.34375 -11.375 C 4.375 -11.363281 4.390625 -11.347656 4.390625 -11.328125 C 4.410156 -11.316406 4.441406 -11.320312 4.484375 -11.34375 C 4.453125 -11.25 4.398438 -11.164062 4.328125 -11.09375 C 4.273438 -11.050781 4.234375 -11.035156 4.203125 -11.046875 C 4.210938 -11.078125 4.203125 -11.09375 4.171875 -11.09375 L 4.140625 -11.140625 Z M 3.703125 -9.109375 C 3.597656 -9.148438 3.515625 -9.222656 3.453125 -9.328125 L 3.515625 -9.421875 L 3.796875 -9.375 Z M 10.875 -7.015625 C 10.851562 -7.015625 10.835938 -7.003906 10.828125 -6.984375 C 10.828125 -6.972656 10.816406 -6.972656 10.796875 -6.984375 C 10.796875 -6.984375 10.789062 -6.976562 10.78125 -6.96875 C 10.78125 -6.957031 10.78125 -6.953125 10.78125 -6.953125 C 10.75 -6.960938 10.734375 -6.984375 10.734375 -7.015625 L 10.765625 -7.09375 Z M 3.453125 -8.4375 C 3.410156 -8.300781 3.332031 -8.25 3.21875 -8.28125 C 3.164062 -8.289062 3.132812 -8.328125 3.125 -8.390625 C 3.15625 -8.441406 3.269531 -8.484375 3.46875 -8.515625 Z M 10.78125 -4.625 C 10.769531 -4.582031 10.75 -4.550781 10.71875 -4.53125 L 10.53125 -4.59375 L 10.609375 -4.671875 Z M 10.0625 -4.046875 C 10.050781 -4.035156 10.03125 -4.03125 10 -4.03125 C 10.007812 -4.0625 9.992188 -4.097656 9.953125 -4.140625 C 9.972656 -4.128906 9.988281 -4.128906 10 -4.140625 L 10.046875 -4.125 C 10.097656 -4.113281 10.125 -4.097656 10.125 -4.078125 Z M 9.109375 -2.484375 L 9.203125 -2.5 L 9.1875 -2.453125 L 9.09375 -2.4375 Z M 9.359375 -2.15625 L 9.4375 -2.125 L 9.390625 -2.046875 L 9.328125 -2.078125 Z M 7.6875 -1.875 C 7.695312 -1.832031 7.6875 -1.800781 7.65625 -1.78125 L 7.453125 -1.84375 L 7.53125 -1.921875 Z M 6.234375 -2 C 6.148438 -1.9375 6.09375 -1.898438 6.0625 -1.890625 C 6.039062 -1.878906 5.992188 -1.882812 5.921875 -1.90625 L 5.8125 -1.9375 C 5.707031 -1.96875 5.65625 -2.035156 5.65625 -2.140625 C 5.65625 -2.140625 5.6875 -2.160156 5.75 -2.203125 C 5.863281 -2.160156 5.945312 -2.125 6 -2.09375 C 6.0625 -2.070312 6.109375 -2.054688 6.140625 -2.046875 Z M 6.796875 -1.796875 L 6.84375 -1.828125 L 6.90625 -1.796875 L 6.828125 -1.75 Z M 6.546875 -1.046875 L 6.6875 -1.453125 L 6.765625 -1.421875 L 6.5625 -1.046875 Z M 5.078125 -1.6875 C 5.085938 -1.695312 5.128906 -1.722656 5.203125 -1.765625 C 5.203125 -1.765625 5.21875 -1.742188 5.25 -1.703125 C 5.289062 -1.660156 5.316406 -1.601562 5.328125 -1.53125 L 5.09375 -1.578125 Z M 5.078125 -1.6875 "/></g></g></g><g clip-path="url(#7e466d7a77)"><g fill="#000000" fill-opacity="1"><g transform="translate(281.539414, 34.732058)"><g><path d="M 13.5625 -1.359375 C 14.363281 -1.523438 15.050781 -1.851562 15.625 -2.34375 L 15.65625 -2.34375 L 15.671875 -2.375 C 16.085938 -2.757812 16.445312 -3.171875 16.75 -3.609375 C 17.175781 -4.222656 17.40625 -4.796875 17.4375 -5.328125 C 17.550781 -6.429688 17.191406 -7.441406 16.359375 -8.359375 C 16.128906 -8.617188 15.8125 -8.890625 15.40625 -9.171875 C 14.976562 -9.460938 14.515625 -9.726562 14.015625 -9.96875 L 9.96875 -12.109375 C 9.75 -12.234375 9.546875 -12.195312 9.359375 -12 L 0.109375 -0.546875 C 0.015625 -0.421875 -0.0195312 -0.289062 0 -0.15625 C 0.0195312 -0.03125 0.0820312 0.0625 0.1875 0.125 L 4.6875 3.21875 C 5.675781 3.894531 6.566406 4.3125 7.359375 4.46875 C 8.222656 4.675781 9.085938 4.578125 9.953125 4.171875 C 10.816406 3.773438 11.507812 3.203125 12.03125 2.453125 C 12.476562 1.796875 12.742188 1.191406 12.828125 0.640625 C 12.921875 0.0859375 12.878906 -0.519531 12.703125 -1.1875 Z M 16.40625 -6.4375 L 16.328125 -6.390625 L 16.28125 -6.421875 L 16.34375 -6.484375 Z M 13.28125 -8.03125 L 13.21875 -8.125 C 13.164062 -8.195312 13.128906 -8.238281 13.109375 -8.25 L 13.234375 -8.265625 L 13.390625 -8.234375 L 13.4375 -8.03125 L 13.421875 -7.984375 L 13.34375 -7.984375 Z M 12.890625 -7.40625 C 12.867188 -7.40625 12.847656 -7.410156 12.828125 -7.421875 L 12.84375 -7.484375 C 12.820312 -7.492188 12.820312 -7.515625 12.84375 -7.546875 L 12.9375 -7.625 L 13.140625 -7.6875 C 13.117188 -7.65625 13.097656 -7.640625 13.078125 -7.640625 L 13.046875 -7.625 C 12.992188 -7.601562 12.972656 -7.566406 12.984375 -7.515625 C 12.984375 -7.472656 12.972656 -7.4375 12.953125 -7.40625 Z M 13.421875 -7.078125 L 13.453125 -7.0625 L 13.40625 -6.984375 L 13.375 -7 Z M 14.125 -6 L 14.203125 -6.046875 L 14.234375 -6.015625 L 14.125 -5.953125 Z M 11.09375 -7.1875 C 11.675781 -6.925781 12.097656 -6.707031 12.359375 -6.53125 C 12.535156 -6.40625 12.660156 -6.25 12.734375 -6.0625 C 12.785156 -5.945312 12.742188 -5.789062 12.609375 -5.59375 C 12.535156 -5.488281 12.410156 -5.351562 12.234375 -5.1875 C 11.953125 -4.945312 11.648438 -4.835938 11.328125 -4.859375 C 10.742188 -4.910156 9.960938 -5.148438 8.984375 -5.578125 L 10.5625 -7.484375 Z M 13.421875 -4.5 C 13.390625 -4.457031 13.359375 -4.4375 13.328125 -4.4375 L 13.296875 -4.484375 C 13.316406 -4.515625 13.359375 -4.519531 13.421875 -4.5 Z M 9.71875 -6.734375 C 9.664062 -6.671875 9.585938 -6.648438 9.484375 -6.671875 L 9.46875 -6.5625 L 9.484375 -6.453125 C 9.484375 -6.453125 9.484375 -6.445312 9.484375 -6.4375 C 9.492188 -6.425781 9.5 -6.421875 9.5 -6.421875 L 9.40625 -6.375 L 9.28125 -6.453125 C 9.25 -6.484375 9.242188 -6.519531 9.265625 -6.5625 L 9.265625 -6.65625 C 9.390625 -6.65625 9.441406 -6.675781 9.421875 -6.71875 L 9.359375 -6.765625 L 9.375 -6.796875 L 9.359375 -6.8125 C 9.367188 -6.832031 9.382812 -6.835938 9.40625 -6.828125 L 9.453125 -6.796875 L 9.46875 -6.859375 C 9.46875 -6.859375 9.46875 -6.863281 9.46875 -6.875 C 9.46875 -6.894531 9.460938 -6.90625 9.453125 -6.90625 L 9.484375 -6.953125 C 9.492188 -6.972656 9.503906 -6.984375 9.515625 -6.984375 L 9.546875 -7.03125 L 9.59375 -7 L 9.671875 -6.984375 C 9.679688 -6.941406 9.6875 -6.921875 9.6875 -6.921875 L 9.703125 -6.796875 Z M 14.640625 -2.484375 C 14.597656 -2.484375 14.566406 -2.488281 14.546875 -2.5 C 14.523438 -2.507812 14.507812 -2.507812 14.5 -2.5 C 14.488281 -2.507812 14.476562 -2.523438 14.46875 -2.546875 C 14.457031 -2.578125 14.460938 -2.609375 14.484375 -2.640625 C 14.503906 -2.671875 14.539062 -2.664062 14.59375 -2.625 L 14.625 -2.609375 L 14.6875 -2.546875 Z M 9.09375 -6.203125 C 9.101562 -6.171875 9.117188 -6.132812 9.140625 -6.09375 L 9.109375 -6 L 8.890625 -6.140625 L 8.984375 -6.203125 L 9.046875 -6.1875 Z M 11.625 -4.203125 C 11.664062 -4.222656 11.710938 -4.265625 11.765625 -4.328125 L 11.9375 -4.203125 L 11.890625 -4.140625 L 11.859375 -4.046875 Z M 11.359375 -4.390625 C 11.328125 -4.359375 11.335938 -4.328125 11.390625 -4.296875 C 11.242188 -4.296875 11.15625 -4.359375 11.125 -4.484375 L 11.25 -4.421875 C 11.300781 -4.410156 11.335938 -4.40625 11.359375 -4.40625 C 11.390625 -4.414062 11.390625 -4.410156 11.359375 -4.390625 Z M 8.96875 -5.953125 C 8.957031 -5.929688 8.957031 -5.921875 8.96875 -5.921875 L 8.796875 -5.921875 C 8.753906 -5.972656 8.734375 -6.054688 8.734375 -6.171875 L 8.90625 -6.078125 L 8.96875 -6.015625 L 8.984375 -5.96875 Z M 11.6875 -4.046875 C 11.6875 -4.046875 11.679688 -4.035156 11.671875 -4.015625 C 11.671875 -4.003906 11.671875 -4 11.671875 -4 L 11.65625 -3.953125 L 11.578125 -4.015625 C 11.535156 -4.035156 11.507812 -4.066406 11.5 -4.109375 C 11.5 -4.117188 11.519531 -4.125 11.5625 -4.125 C 11.613281 -4.125 11.660156 -4.109375 11.703125 -4.078125 Z M 11.796875 -3.4375 C 11.722656 -3.425781 11.664062 -3.4375 11.625 -3.46875 C 11.59375 -3.488281 11.546875 -3.503906 11.484375 -3.515625 C 11.492188 -3.535156 11.5 -3.554688 11.5 -3.578125 L 11.484375 -3.625 L 11.46875 -3.6875 L 11.546875 -3.703125 L 11.640625 -3.75 C 11.734375 -3.738281 11.800781 -3.75 11.84375 -3.78125 Z M 10.65625 -4.484375 L 10.6875 -4.546875 L 10.84375 -4.421875 L 10.796875 -4.34375 Z M 7.796875 -6.1875 C 7.796875 -6.195312 7.773438 -6.21875 7.734375 -6.25 L 7.703125 -6.296875 L 7.609375 -6.40625 C 7.640625 -6.457031 7.71875 -6.460938 7.84375 -6.421875 L 7.890625 -6.328125 Z M 10.703125 -4.359375 C 10.734375 -4.296875 10.703125 -4.253906 10.609375 -4.234375 L 10.5625 -4.265625 L 10.53125 -4.3125 C 10.53125 -4.320312 10.53125 -4.328125 10.53125 -4.328125 L 10.578125 -4.375 L 10.640625 -4.375 Z M 7.34375 -6.40625 C 7.300781 -6.425781 7.273438 -6.453125 7.265625 -6.484375 L 7.375 -6.5625 C 7.382812 -6.5625 7.394531 -6.554688 7.40625 -6.546875 C 7.425781 -6.535156 7.441406 -6.523438 7.453125 -6.515625 L 7.53125 -6.453125 L 7.4375 -6.328125 Z M 8.359375 -5.734375 C 8.367188 -5.753906 8.382812 -5.757812 8.40625 -5.75 C 8.425781 -5.738281 8.453125 -5.734375 8.484375 -5.734375 L 8.421875 -5.65625 C 8.398438 -5.613281 8.367188 -5.585938 8.328125 -5.578125 L 8.296875 -5.703125 C 8.296875 -5.710938 8.316406 -5.722656 8.359375 -5.734375 Z M 13.1875 -2.375 C 13.21875 -2.363281 13.253906 -2.351562 13.296875 -2.34375 C 13.347656 -2.332031 13.394531 -2.316406 13.4375 -2.296875 L 13.515625 -2.234375 L 13.546875 -2.171875 L 13.421875 -2.140625 Z M 13.09375 -2.375 L 13.046875 -2.390625 L 13.0625 -2.453125 L 13.09375 -2.4375 Z M 11.328125 -3.328125 L 11.40625 -3.453125 L 11.5 -3.390625 L 11.421875 -3.265625 Z M 11.109375 -3.46875 C 11.171875 -3.363281 11.179688 -3.28125 11.140625 -3.21875 L 10.96875 -3.34375 C 11.019531 -3.375 11.066406 -3.414062 11.109375 -3.46875 Z M 13.140625 -2.046875 L 13.015625 -2.046875 L 13.0625 -2.09375 L 13.109375 -2.078125 Z M 9.8125 -3.28125 C 9.769531 -3.28125 9.742188 -3.316406 9.734375 -3.390625 L 9.765625 -3.46875 C 9.796875 -3.519531 9.835938 -3.523438 9.890625 -3.484375 C 9.921875 -3.460938 9.945312 -3.429688 9.96875 -3.390625 L 9.875 -3.25 Z M 11.046875 -2.25 L 11.109375 -2.328125 C 11.128906 -2.316406 11.140625 -2.316406 11.140625 -2.328125 L 11.25 -2.25 L 11.15625 -2.1875 Z M 8.90625 -1.671875 C 8.84375 -1.722656 8.820312 -1.789062 8.84375 -1.875 C 8.894531 -1.84375 8.929688 -1.804688 8.953125 -1.765625 C 8.953125 -1.742188 8.9375 -1.710938 8.90625 -1.671875 Z M 7.6875 -2.3125 L 7.703125 -2.328125 C 8.046875 -2.203125 8.316406 -2.070312 8.515625 -1.9375 C 8.660156 -1.832031 8.753906 -1.734375 8.796875 -1.640625 C 8.921875 -1.335938 8.890625 -1.050781 8.703125 -0.78125 C 8.597656 -0.613281 8.441406 -0.472656 8.234375 -0.359375 C 8.023438 -0.253906 7.820312 -0.191406 7.625 -0.171875 C 7.257812 -0.148438 6.90625 -0.179688 6.5625 -0.265625 C 6.226562 -0.359375 5.847656 -0.523438 5.421875 -0.765625 L 6.828125 -2.671875 Z M 9.75 -1.078125 L 9.78125 -1.0625 L 9.703125 -0.96875 L 9.671875 -0.984375 Z M 5.21875 -3.71875 C 5.1875 -3.675781 5.148438 -3.660156 5.109375 -3.671875 L 5.21875 -3.84375 C 5.226562 -3.769531 5.226562 -3.726562 5.21875 -3.71875 Z M 5.09375 -3.453125 C 5.09375 -3.453125 5.085938 -3.445312 5.078125 -3.4375 C 5.066406 -3.425781 5.0625 -3.421875 5.0625 -3.421875 C 4.96875 -3.441406 4.910156 -3.414062 4.890625 -3.34375 C 4.890625 -3.320312 4.878906 -3.304688 4.859375 -3.296875 C 4.847656 -3.296875 4.835938 -3.285156 4.828125 -3.265625 C 4.816406 -3.296875 4.789062 -3.328125 4.75 -3.359375 L 4.796875 -3.40625 C 4.878906 -3.40625 4.9375 -3.425781 4.96875 -3.46875 C 4.945312 -3.53125 4.984375 -3.546875 5.078125 -3.515625 L 5.109375 -3.5 L 5.078125 -3.46875 C 5.085938 -3.46875 5.09375 -3.460938 5.09375 -3.453125 Z M 4.75 -3.03125 C 4.726562 -3 4.691406 -2.960938 4.640625 -2.921875 C 4.585938 -2.890625 4.535156 -2.867188 4.484375 -2.859375 C 4.484375 -2.859375 4.488281 -2.820312 4.5 -2.75 C 4.5 -2.75 4.5 -2.738281 4.5 -2.71875 C 4.5 -2.707031 4.5 -2.703125 4.5 -2.703125 L 4.453125 -2.734375 C 4.441406 -2.742188 4.414062 -2.765625 4.375 -2.796875 L 4.546875 -3.046875 C 4.578125 -3.140625 4.625 -3.207031 4.6875 -3.25 L 4.78125 -3.1875 C 4.769531 -3.175781 4.769531 -3.148438 4.78125 -3.109375 Z M 5.515625 -2.5625 C 5.515625 -2.53125 5.503906 -2.507812 5.484375 -2.5 C 5.472656 -2.488281 5.460938 -2.484375 5.453125 -2.484375 L 5.453125 -2.53125 C 5.472656 -2.5625 5.484375 -2.578125 5.484375 -2.578125 C 5.503906 -2.609375 5.53125 -2.625 5.5625 -2.625 Z M 4.234375 -2.390625 C 4.242188 -2.410156 4.238281 -2.425781 4.21875 -2.4375 C 4.207031 -2.457031 4.203125 -2.46875 4.203125 -2.46875 C 4.191406 -2.46875 4.1875 -2.476562 4.1875 -2.5 C 4.1875 -2.519531 4.1875 -2.53125 4.1875 -2.53125 L 4.28125 -2.46875 Z M 3.6875 -1.546875 C 3.65625 -1.535156 3.613281 -1.488281 3.5625 -1.40625 C 3.5 -1.445312 3.453125 -1.457031 3.421875 -1.4375 C 3.429688 -1.382812 3.441406 -1.359375 3.453125 -1.359375 C 3.484375 -1.335938 3.492188 -1.316406 3.484375 -1.296875 C 3.460938 -1.304688 3.445312 -1.304688 3.4375 -1.296875 L 3.40625 -1.296875 L 3.375 -1.40625 C 3.351562 -1.457031 3.347656 -1.492188 3.359375 -1.515625 L 3.4375 -1.59375 L 3.5 -1.625 L 3.546875 -1.59375 L 3.625 -1.578125 C 3.625 -1.609375 3.601562 -1.640625 3.5625 -1.671875 C 3.613281 -1.816406 3.691406 -1.960938 3.796875 -2.109375 C 3.804688 -2.140625 3.835938 -2.140625 3.890625 -2.109375 C 3.953125 -2.097656 3.992188 -2.109375 4.015625 -2.140625 L 4.046875 -2.1875 C 4.078125 -2.226562 4.109375 -2.253906 4.140625 -2.265625 L 3.921875 -1.90625 C 3.878906 -1.9375 3.832031 -1.941406 3.78125 -1.921875 C 3.789062 -1.890625 3.800781 -1.851562 3.8125 -1.8125 C 3.820312 -1.78125 3.820312 -1.753906 3.8125 -1.734375 C 3.8125 -1.710938 3.800781 -1.691406 3.78125 -1.671875 Z M 7.09375 0.59375 C 7.039062 0.613281 6.988281 0.609375 6.9375 0.578125 L 6.921875 0.46875 L 7.015625 0.46875 L 7.125 0.5 Z M 3.21875 -1.28125 L 3.25 -1.328125 L 3.296875 -1.34375 L 3.34375 -1.3125 L 3.421875 -1.21875 L 3.34375 -1.109375 L 3.28125 -1.140625 Z M 3.21875 0.640625 C 3.21875 0.640625 3.21875 0.628906 3.21875 0.609375 C 3.21875 0.597656 3.21875 0.59375 3.21875 0.59375 L 3.25 0.546875 C 3.28125 0.503906 3.316406 0.46875 3.359375 0.4375 C 3.410156 0.414062 3.460938 0.40625 3.515625 0.40625 L 3.5625 0.328125 L 3.609375 0.234375 L 3.640625 0.21875 C 3.640625 0.207031 3.648438 0.207031 3.671875 0.21875 C 3.691406 0.0820312 3.757812 -0.00390625 3.875 -0.046875 C 4 -0.117188 4.109375 -0.222656 4.203125 -0.359375 L 4.328125 -0.453125 C 4.390625 -0.484375 4.441406 -0.507812 4.484375 -0.53125 L 3.546875 0.859375 Z M 3.03125 -0.859375 L 3 -0.890625 L 3.046875 -0.96875 L 3.078125 -0.9375 Z M 2.90625 -0.671875 L 2.875 -0.703125 L 2.921875 -0.765625 L 2.953125 -0.734375 Z M 2.640625 -0.34375 C 2.578125 -0.363281 2.535156 -0.394531 2.515625 -0.4375 L 2.578125 -0.515625 L 2.703125 -0.421875 Z M 3.21875 0.421875 C 3.195312 0.453125 3.164062 0.46875 3.125 0.46875 C 3.082031 0.476562 3.050781 0.492188 3.03125 0.515625 C 3.03125 0.546875 3.019531 0.578125 3 0.609375 C 2.96875 0.660156 2.90625 0.691406 2.8125 0.703125 L 2.75 0.71875 L 2.734375 0.703125 C 2.734375 0.671875 2.753906 0.625 2.796875 0.5625 C 2.847656 0.488281 2.882812 0.460938 2.90625 0.484375 C 2.9375 0.492188 3.023438 0.453125 3.171875 0.359375 C 3.179688 0.367188 3.179688 0.378906 3.171875 0.390625 Z M 3.21875 0.421875 "/></g></g></g></g></svg>